<svg width="251" height="200" viewBox="0 0 251 200" fill="none" xmlns="http://www.w3.org/2000/svg">
<rect x="0.5" width="250" height="200" fill="#FAFAFA"/>
<path d="M125.5 151C153.667 151 176.5 128.167 176.5 100C176.5 71.8335 153.667 49 125.5 49C97.3335 49 74.5 71.8335 74.5 100C74.5 128.167 97.3335 151 125.5 151Z" fill="#FFF5F5"/>
<path d="M167.5 148H189.928M64.5 148H85.9541H64.5ZM51.6279 148H58.5H51.6279ZM194.628 148H197.5H194.628Z" stroke="#D61116" stroke-width="2.5" stroke-linecap="round" stroke-linejoin="round"/>
<path d="M98.5 43.3027L109.6 55.7559M150.6 43.3027L139.5 55.7559L150.6 43.3027ZM124.5 39V55.7559V39Z" stroke="#F9B8BA" stroke-width="2.5" stroke-linecap="round" stroke-linejoin="round"/>
<path fill-rule="evenodd" clip-rule="evenodd" d="M93.2975 71H155.904L150.298 79.4098L157.773 85.0164H91.4287L99.8385 79.4098L93.2975 71Z" fill="#FFF5F5"/>
<rect x="89.5" y="83" width="71" height="75" rx="2" fill="#FAFAFA"/>
<path fill-rule="evenodd" clip-rule="evenodd" d="M94.0852 124.006V89.6453C94.0852 88.2296 95.2455 87.082 96.6767 87.082L157.653 151.164C157.653 153.052 156.142 154.582 154.278 154.582H97.4602C95.5962 154.582 94.0852 153.052 94.0852 151.164V138.395V134.93V124.006ZM94.0852 131.425V127.576V131.425Z" fill="#FFF5F5"/>
<path d="M90.5 124.463V86.8853C90.5 85.337 91.7705 84.082 93.3377 84.082H158.261C159.282 84.082 160.109 84.9187 160.109 85.9508V154.164C160.109 156.228 158.454 157.902 156.413 157.902H94.1956C92.1546 157.902 90.5 156.228 90.5 154.164V140.199V136.41M90.5 132.576V128.368" stroke="#D61116" stroke-width="2.5" stroke-linecap="round"/>
<path d="M92.3631 84.082V72.8689C92.3631 71.8367 93.114 71 94.0403 71H156.096C157.022 71 157.773 71.8367 157.773 72.8689V84.082" stroke="#D61116" stroke-width="2.5"/>
<path d="M109.65 103.705C111.456 103.705 112.92 102.241 112.92 100.434C112.92 98.6282 111.456 97.1639 109.65 97.1639C107.844 97.1639 106.38 98.6282 106.38 100.434C106.38 102.241 107.844 103.705 109.65 103.705Z" fill="#FFF5F5" stroke="#D61116" stroke-width="2.5" stroke-linecap="round"/>
<path d="M140.486 103.705C142.292 103.705 143.757 102.241 143.757 100.434C143.757 98.6282 142.292 97.1639 140.486 97.1639C138.68 97.1639 137.216 98.6282 137.216 100.434C137.216 102.241 138.68 103.705 140.486 103.705Z" fill="#FFF5F5" stroke="#D61116" stroke-width="2.5" stroke-linecap="round"/>
<path d="M140.019 103.705C140.019 111.962 133.325 118.656 125.068 118.656C116.811 118.656 110.117 111.962 110.117 103.705" stroke="#D61116" stroke-width="2.5" stroke-linecap="round"/>
<path d="M93.3546 71.9315L99.933 78.4251C100.326 78.8131 100.33 79.4463 99.9421 79.8393C99.875 79.9073 99.7984 79.9654 99.7148 80.0117L92.3631 84.082" stroke="#D61116" stroke-width="2.5" stroke-linecap="round"/>
<path d="M156.94 71.9992L150.645 78.4197C150.258 78.814 150.265 79.4472 150.659 79.8338C150.725 79.8984 150.799 79.9535 150.88 79.9976L158.367 84.082" stroke="#D61116" stroke-width="2.5" stroke-linecap="round"/>
</svg>
